#format: frame checksums
#version: 1
#hash: MD5
#tb 0: 1/25
#stream#, dts,        pts, duration,     size, hash
0,         -1,          0,        1,    91288, d05f34dc8708e95b383117bdf42cafb0
0,          0,          1,        1,    50310, f83feb9a3c3b9fd5d93e25c5e6356239
0,          1,          2,        1,    47180, 0d08a1b1f43cd94cd46261e63ea12816
0,          2,          3,        1,    44074, 35e081dc506cb47bb25b3d3f9483ff79
0,          3,          4,        1,    41632, 2d1fb62347cab9d79bd8a613f9094d4c
0,          4,          5,        1,    35554, 4833c7f4fe428fc7bf14ef34924c7732
0,          5,          6,        1,    32425, 5f816f26d4344540d7fc5066c69e0a69
0,          6,          7,        1,    30417, 439a59bd7d18592c82a02b6b963718f3
0,          7,          8,        1,    28177, a3353f40867ea38cea49a420756a7842
0,          8,          9,        1,    25252, e762dfff4fa3a77d109c4b36be940bb6
0,          9,         10,        1,    23090, 2185452f1d4231cee963dacf212fd2a7
0,         10,         11,        1,    22450, 08c7039437ff612071187a5a92c8445a
0,         11,         12,        1,    57204, dd9a59339eb7c8d0dc09520b1fa67d1a
0,         12,         13,        1,    18080, a2ff0f68649786bd9ac38e99b6edd4ef
0,         13,         14,        1,    17668, 7a524ee844266dd4518e15cb34b9aa9d
0,         14,         15,        1,    16464, 5e3e1124842184f41f28293a9f8b532d
0,         15,         16,        1,    14391, c6eadbfa1e5a0bfb5c3da98fe1ae83ce
0,         16,         17,        1,    15101, 35b8a7e22a0e92b0af4e0669cefbe4fd
0,         17,         18,        1,    13263, bf9f538bb5f755326203eafef22a4282
0,         18,         19,        1,    14421, f7798279ce6ce4f45bdb8c5cf5919667
0,         19,         20,        1,    14515, 973f801ca4636f75b44f1d45f095ef64
0,         20,         21,        1,    14888, 2f7d568bf31e74c0fc15ba577a9389e1
0,         21,         22,        1,    14953, 1720ad4f185eba58b39413808326e4c4
0,         22,         23,        1,    15062, 8402f4a46988279e5f0e50810c2995ec
0,         23,         24,        1,    49688, 45a2f431b4046661e7758e2db6b6095a
0,         24,         25,        1,    13053, db9267812c9b07b23475c71c496fab6c
0,         25,         26,        1,    14836, ca1eb92d4706eb817baa20fd454f73bf
0,         26,         27,        1,    15522, e20cdce90967592ae22a017fde405bf6
0,         27,         28,        1,    15768, 57a9aa32ba2f15c6070b121bdc85b65e
0,         28,         29,        1,    16150, 98c1015632a262000304b23ebaf3c2e6
0,         29,         30,        1,    16524, e0103cac51b5102e8da5a99cc2803238
0,         30,         31,        1,    17363, 04c5532cec02ebb8b50b36cdd9f06d23
0,         31,         32,        1,    19731, fa082e9a7bdf1a88d22c575a6471e447
0,         32,         33,        1,    18713, 8b1e2a52192d1bf8a29c28174cc06fe6
0,         33,         34,        1,    19441, 3155711cbbd41706bf12b837267197de
0,         34,         35,        1,    19552, 22442ddccd3361c3553e413ae179e59c
0,         35,         36,        1,    50211, c4232026cc578521b7b4ad393d82ce66
0,         36,         37,        1,    21437, b1c83dbba85be386bdc66cc1caccee54
0,         37,         38,        1,    24203, a1a9f7fafac524630bfb9576f90a97a8
0,         38,         39,        1,    24245, c78c831472916aa155af3c0bbe2ec657
0,         39,         40,        1,    23154, c871a42a746feab6b0eb16ad7204fb87
0,         40,         41,        1,    23057, d164d6e7c3b790ce70ea543f04226ed3
0,         41,         42,        1,    23306, 4037f116db762d51c12f3197e8d1a823
0,         42,         43,        1,    22664, 4e0d18c05ef4957c63437c8e43156eb1
0,         43,         44,        1,    22812, edef3a0ef5a616e8bcd2219837558fe9
0,         44,         45,        1,    22817, a5e6c1bf21a672a901913a3e9aefa09a
0,         45,         46,        1,    24074, 2550a3600d373a95599630b844332ac4
0,         46,         47,        1,    23163, ff9cd2c57ef9fcc6ed7b7d4736d73b09
0,         47,         48,        1,    52152, e07769a45d71d70e132b1402aa428d17
0,         48,         49,        1,    21440, e7909d38c44b077a884e0d5c74390440
